<svg width="24" height="24" viewBox="0 0 24 24" fill="none" xmlns="http://www.w3.org/2000/svg">
<path d="M19.6271 3.42847C20.6186 3.42847 21.4286 4.25322 21.4286 5.26291V18.7369C21.4286 19.7466 20.6186 20.5713 19.6271 20.5713H4.3729C3.38136 20.5713 2.57143 19.7466 2.57143 18.7369V5.26291C2.57143 4.25322 3.38136 3.42847 4.3729 3.42847H19.6271ZM18.7632 11.571C18.4588 11.2611 17.9827 11.2411 17.6538 11.511L17.59 11.571L14.3356 14.89L12.9563 13.4854L12.8924 13.4254C12.5685 13.1555 12.0874 13.1755 11.7831 13.4804C11.4788 13.7903 11.4591 14.2752 11.7242 14.6101L11.7831 14.6751L13.7465 16.6745C13.9036 16.8344 14.1147 16.9194 14.3307 16.9244C14.5516 16.9244 14.7626 16.8344 14.9148 16.6795L18.7583 12.7656C19.0822 12.4357 19.0822 11.9009 18.7583 11.571H18.7632ZM6.16947 9.9165C5.67369 9.9165 5.27118 10.3264 5.27118 10.8312C5.27118 11.3361 5.67369 11.7459 6.16947 11.7459H9.36009C9.85586 11.7459 10.2584 11.3361 10.2584 10.8312C10.2584 10.3264 9.85095 9.9165 9.36009 9.9165H6.16947ZM6.16947 6.74246C5.67369 6.74246 5.27118 7.15734 5.27118 7.65719C5.27118 8.16203 5.67369 8.57191 6.16947 8.57191H9.36009C9.85586 8.57191 10.2584 8.16203 10.2584 7.65719C10.2584 7.15234 9.85095 6.74246 9.36009 6.74246H6.16947Z" fill="#222222"/>
</svg>
