<svg width="32" height="32" viewBox="0 0 32 32" fill="none" xmlns="http://www.w3.org/2000/svg">
<path d="M18.9737 23.721C18.8844 23.6325 18.8136 23.5275 18.7652 23.412C18.7169 23.2964 18.692 23.1725 18.692 23.0475C18.692 22.9224 18.7169 22.7985 18.7652 22.6829C18.8136 22.5674 18.8844 22.4624 18.9737 22.3739L22.7168 18.6665L15.423 18.6665C10.2192 18.6665 6 14.4875 6 9.33332L6 8.95237C6 8.69979 6.1013 8.45755 6.28163 8.27894C6.46195 8.10034 6.70652 8 6.96153 8C7.21654 8 7.46111 8.10034 7.64144 8.27894C7.82176 8.45755 7.92306 8.69979 7.92306 8.95237L7.92306 9.33332C7.92306 10.3088 8.11705 11.2748 8.49396 12.1761C8.87086 13.0773 9.42331 13.8963 10.1197 14.5861C10.8162 15.2759 11.643 15.823 12.5529 16.1963C13.4628 16.5697 14.4381 16.7618 15.423 16.7618L22.7168 16.7618L18.9737 13.0544C18.7934 12.8758 18.6921 12.6335 18.6921 12.3809C18.6921 12.1283 18.7934 11.886 18.9737 11.7074C19.1541 11.5288 19.3987 11.4284 19.6537 11.4284C19.9088 11.4284 20.1534 11.5288 20.3337 11.7074L25.7183 17.0407C25.8076 17.1291 25.8784 17.2341 25.9268 17.3497C25.9751 17.4652 26 17.5891 26 17.7142C26 17.8393 25.9751 17.9631 25.9268 18.0787C25.8784 18.1943 25.8076 18.2993 25.7183 18.3877L20.3337 23.721C20.2444 23.8094 20.1384 23.8796 20.0217 23.9275C19.9051 23.9754 19.78 24 19.6537 24C19.5274 24 19.4024 23.9754 19.2857 23.9275C19.169 23.8796 19.063 23.8094 18.9737 23.721Z" fill="#A7A7A7"/>
</svg>
