<svg width="32" height="32" viewBox="0 0 32 32" fill="none" xmlns="http://www.w3.org/2000/svg">
<path d="M24 5C26.2091 5 28 6.79086 28 9V12C28 12.5523 27.5523 13 27 13C26.4477 13 26 12.5523 26 12V9C26 7.89543 25.1046 7 24 7H8C6.89543 7 6 7.89543 6 9V21C6 22.1046 6.89543 23 8 23H16C16.5523 23 17 23.4477 17 24C17 24.5523 16.5523 25 16 25H8C5.79086 25 4 23.2091 4 21V9C4 6.79086 5.79086 5 8 5H24Z" fill="#A7A7A7"/>
<path d="M23.293 17.293C23.6835 16.9024 24.3165 16.9024 24.707 17.293C25.0975 17.6835 25.0975 18.3165 24.707 18.707L23.4141 20H29C29.5523 20 30 20.4477 30 21C30 21.5522 29.5523 22 29 22H23.4141L24.707 23.293C25.0975 23.6835 25.0975 24.3165 24.707 24.707C24.3165 25.0975 23.6835 25.0975 23.293 24.707L20.293 21.707C19.9025 21.3165 19.9025 20.6835 20.293 20.293L23.293 17.293Z" fill="#A7A7A7"/>
<path d="M21.3594 10.2314C21.7836 9.87791 22.415 9.93519 22.7686 10.3594C23.1221 10.7836 23.0648 11.415 22.6406 11.7686L17.9209 15.7012C16.8084 16.6283 15.1916 16.6283 14.0791 15.7012L9.35938 11.7686C8.93519 11.415 8.87791 10.7836 9.23145 10.3594C9.58502 9.93519 10.2164 9.87791 10.6406 10.2314L15.3594 14.165C15.7302 14.4741 16.2698 14.4741 16.6406 14.165L21.3594 10.2314Z" fill="#A7A7A7"/>
</svg>
