<svg width="32" height="32" viewBox="0 0 32 32" fill="none" xmlns="http://www.w3.org/2000/svg">
<path d="M3 18.5C3 15.6962 4.77495 13.3064 7.2627 12.3945C8.19947 8.71851 11.5323 6 15.5 6C19.705 6 23.1946 9.05384 23.877 13.0645C26.7749 13.4889 29 15.9842 29 19C29 22.3137 26.3137 25 23 25V24V23C25.2091 23 27 21.2091 27 19C27 16.9916 25.5174 15.3257 23.5869 15.043C22.7297 14.9173 22.0508 14.2544 21.9053 13.4004C21.3836 10.3341 18.7128 8 15.5 8C12.4686 8 9.91761 10.0773 9.20117 12.8887C9.03827 13.5277 8.57038 14.0455 7.95117 14.2725C6.22627 14.9047 5 16.5617 5 18.5C5 20.8666 6.82904 22.8074 9.15137 22.9844C9.19471 22.9877 9.23779 22.994 9.28027 23H23V24V25H9V24.9785C5.64387 24.7231 3 21.9215 3 18.5Z" fill="#A7A7A7"/>
</svg>
