<svg width="32" height="32" viewBox="0 0 32 32" fill="none" xmlns="http://www.w3.org/2000/svg">
<path d="M4 23V11C4 8.23858 6.23858 6 9 6H15L15.1025 6.00488C15.6067 6.05621 16 6.48232 16 7C16 7.51768 15.6067 7.94379 15.1025 7.99512L15 8H9C7.34315 8 6 9.34315 6 11V23C6 24.6569 7.34315 26 9 26H21C22.6569 26 24 24.6569 24 23V17C24 16.4477 24.4477 16 25 16C25.5523 16 26 16.4477 26 17V23C26 25.7614 23.7614 28 21 28H9C6.23858 28 4 25.7614 4 23Z" fill="#A7A7A7"/>
<path d="M17.4999 16.9998L17.4999 15.3582C17.5 12.0445 20.1862 9.3582 23.4999 9.3582L24.9911 9.3582L22.9091 12.1141C22.5761 12.5547 22.6638 13.1815 23.1044 13.5144C23.545 13.8472 24.1719 13.7597 24.5048 13.3191L27.7978 8.96074C28.0671 8.60409 28.0671 8.11227 27.7978 7.75566L24.5048 3.39726C24.1719 2.95671 23.545 2.86927 23.1044 3.20195C22.6638 3.53486 22.5762 4.16169 22.9091 4.60234L24.9911 7.3582L23.4999 7.3582C19.0817 7.3582 15.5 10.94 15.4999 15.3582L15.4999 16.9998C15.4999 17.5521 15.9476 17.9998 16.4999 17.9998C17.0522 17.9998 17.4999 17.5521 17.4999 16.9998Z" fill="#A7A7A7"/>
</svg>
